<svg width="20" height="18" viewBox="0 0 20 18" fill="none" xmlns="http://www.w3.org/2000/svg">
<path opacity="0.9" d="M10.2129 10.1563C10.6688 9.70038 10.6688 8.96124 10.2129 8.50535L2.78371 1.07616C2.32782 0.620264 1.58867 0.620264 1.13278 1.07616C0.67689 1.53205 0.67689 2.2712 1.13278 2.72709L7.73651 9.33081L1.13278 15.9345C0.67689 16.3904 0.67689 17.1296 1.13278 17.5855C1.58867 18.0414 2.32782 18.0414 2.78371 17.5855L10.2129 10.1563ZM7.05469 10.4982H9.38744V8.16343H7.05469V10.4982Z" fill="#F2DA5E"/>
<path opacity="0.9" d="M19.5437 10.1563C19.9996 9.70038 19.9996 8.96124 19.5437 8.50535L12.1145 1.07616C11.6586 0.620264 10.9195 0.620264 10.4636 1.07616C10.0077 1.53205 10.0077 2.2712 10.4636 2.72709L17.0673 9.33081L10.4636 15.9345C10.0077 16.3904 10.0077 17.1296 10.4636 17.5855C10.9195 18.0414 11.6586 18.0414 12.1145 17.5855L19.5437 10.1563ZM16.3855 10.4982H18.7182V8.16343H16.3855V10.4982Z" fill="#F2DA5E"/>
</svg>
