<?xml version="1.0" encoding="UTF-8"?>
<!DOCTYPE svg PUBLIC "-//W3C//DTD SVG 1.1//EN" "http://www.w3.org/Graphics/SVG/1.1/DTD/svg11.dtd">
<!-- Creator: CorelDRAW 2021 (64-Bit) -->
<svg xmlns="http://www.w3.org/2000/svg" xml:space="preserve" width="171.26mm" height="114.31mm" version="1.1" style="shape-rendering:geometricPrecision; text-rendering:geometricPrecision; image-rendering:optimizeQuality; fill-rule:evenodd; clip-rule:evenodd"
viewBox="0 0 4706390 3141358"
 xmlns:xlink="http://www.w3.org/1999/xlink"
 xmlns:xodm="http://www.corel.com/coreldraw/odm/2003">
 <defs>
  <style type="text/css">
   <![CDATA[
    .fil0 {fill:#173E00;fill-rule:nonzero}
    .fil1 {fill:#EBD05D;fill-rule:nonzero}
    .fil3 {fill:url(#id0);fill-rule:nonzero}
    .fil2 {fill:url(#id1);fill-rule:nonzero}
   ]]>
  </style>
  <linearGradient id="id0" gradientUnits="userSpaceOnUse" x1="633845" y1="1295466" x2="943157" y2="1989538">
   <stop offset="0" style="stop-opacity:1; stop-color:#E7CE5A"/>
   <stop offset="1" style="stop-opacity:1; stop-color:#FDF272"/>
  </linearGradient>
  <linearGradient id="id1" gradientUnits="userSpaceOnUse" x1="634719" y1="424047" x2="959222" y2="1117914">
   <stop offset="0" style="stop-opacity:1; stop-color:#E7CE5B"/>
   <stop offset="1" style="stop-opacity:1; stop-color:#FDF272"/>
  </linearGradient>
 </defs>
 <g id="Capa_x0020_1">
  <metadata id="CorelCorpID_0Corel-Layer"/>
  <g id="pps">
   <path id="si" class="fil0" d="M2145295 1282860l87524 -377558 119561 0c40042,0 71412,9726 94103,29177 22691,19448 34038,45192 34038,77227 0,25552 -6293,48339 -18879,68362 -12584,20020 -30317,35657 -53200,46907 -22883,11251 -49768,16876 -80659,16876l-115557 0 11443 -52057 110979 0c18687,0 34131,-3432 46336,-10297 12204,-6865 21358,-16112 27459,-27745 6101,-11633 9154,-24312 9154,-38042 0,-17544 -5818,-31655 -17448,-42332 -11633,-10679 -29462,-16019 -53489,-16019l-64069 0 -75512 325501 -61783 0zm491398 5147c-27077,0 -50342,-5623 -69791,-16873 -19451,-11251 -34516,-26602 -45192,-46053 -10679,-19448 -16019,-41378 -16019,-65787 0,-30509 6104,-58444 18305,-83806 12204,-25359 29938,-45668 53203,-60923 23263,-15255 51293,-22883 84092,-22883 24409,0 45382,4958 62926,14873 17544,9918 30891,23741 40045,41474 9151,17733 13729,38424 13729,62068 0,7629 -478,15447 -1432,23455 -954,8008 -2765,16019 -5433,24027l-230540 0 0 -46910 197360 0 -22309 16019c1525,-4576 2479,-9058 2858,-13444 382,-4386 574,-8486 574,-12298 0,-12586 -2385,-23455 -7151,-32609 -4768,-9154 -11729,-16208 -20880,-21166 -9154,-4958 -20023,-7436 -32609,-7436 -17162,0 -31749,3529 -43761,10583 -12015,7054 -21644,16590 -28891,28602 -7247,12015 -12394,25266 -15444,39759 -3050,14491 -4578,28792 -4578,42903 0,16019 3147,29842 9440,41474 6293,11633 15065,20690 26316,27173 11251,6483 24502,9726 39757,9726 17926,0 32513,-3814 43763,-11443 11251,-7626 20308,-17351 27173,-29174l49196 26316c-7629,12966 -17640,24120 -30034,33464 -12394,9344 -26505,16494 -42332,21452 -15826,4958 -33274,7436 -52343,7436zm294609 -572c-19833,0 -36706,-3718 -50628,-11155 -13919,-7436 -23741,-18401 -29460,-32892 -5722,-14493 -6293,-32037 -1718,-52632l58922 -256279 65787 -18308 -64643 275161c-3812,16780 -1525,28888 6865,36324 8393,7436 19261,11155 32609,11155 9154,0 17066,-1143 23741,-3432 6672,-2286 12680,-5340 18019,-9151l4576 45192c-9915,6101 -20116,10297 -30606,12584 -10487,2289 -21641,3432 -33464,3432zm-104686 -242552l10869 -48050 203079 0 -10869 48050 -203079 0zm363828 243124c-27077,0 -50342,-5623 -69791,-16873 -19451,-11251 -34516,-26602 -45192,-46053 -10679,-19448 -16019,-41378 -16019,-65787 0,-30509 6104,-58444 18305,-83806 12204,-25359 29938,-45668 53203,-60923 23263,-15255 51293,-22883 84092,-22883 24409,0 45382,4958 62926,14873 17544,9918 30891,23741 40045,41474 9151,17733 13729,38424 13729,62068 0,7629 -478,15447 -1432,23455 -954,8008 -2765,16019 -5433,24027l-230540 0 0 -46910 197360 0 -22309 16019c1525,-4576 2479,-9058 2858,-13444 382,-4386 574,-8486 574,-12298 0,-12586 -2385,-23455 -7151,-32609 -4768,-9154 -11729,-16208 -20880,-21166 -9154,-4958 -20023,-7436 -32609,-7436 -17162,0 -31749,3529 -43761,10583 -12015,7054 -21644,16590 -28891,28602 -7247,12015 -12394,25266 -15444,39759 -3050,14491 -4578,28792 -4578,42903 0,16019 3147,29842 9440,41474 6293,11633 15065,20690 26316,27173 11251,6483 24502,9726 39757,9726 17926,0 32513,-3814 43763,-11443 11251,-7626 20308,-17351 27173,-29174l49196 26316c-7629,12966 -17640,24120 -30034,33464 -12394,9344 -26505,16494 -42332,21452 -15826,4958 -33274,7436 -52343,7436zm182487 -5147l66358 -286027 51486 0 -9154 77227 -6293 -5722c6104,-16016 14397,-29745 24884,-41188 10489,-11440 22598,-20308 36327,-26599 13729,-6293 28031,-9440 42903,-9440 6104,0 11537,382 16304,1143 4768,764 8865,2097 12298,4004l-16587 54918c-3814,-1907 -8104,-3336 -12872,-4290 -4768,-954 -10773,-1429 -18019,-1429 -13729,0 -26698,3144 -38899,9437 -12204,6293 -22883,15922 -32037,28891 -9151,12966 -16208,29938 -21166,50911l-34324 148164 -61208 0zm352385 -398152c13729,0 24409,4576 32035,13729 7629,9154 11440,20976 11440,35467 0,16019 -4100,32037 -12298,48053 -8200,16019 -19926,30034 -35181,42046 -15255,12015 -33562,20308 -54918,24887l-16590 -30320c14873,-2671 27555,-6675 38042,-12015 10487,-5340 19069,-11916 25741,-19734 6675,-7818 11537,-15922 14590,-24312l-1146 -1146c-1907,1525 -3908,2575 -6005,3147 -2100,572 -5246,857 -9440,857 -9915,0 -17733,-3622 -23455,-10869 -5722,-7244 -8580,-15444 -8580,-24598 0,-13729 4386,-24694 13155,-32892 8772,-8200 19641,-12300 32609,-12300zm148164 404445c-21740,0 -41667,-3243 -59779,-9726 -18115,-6483 -33848,-15826 -47196,-28031 -13347,-12204 -23837,-26505 -31463,-42903l46336 -28033c8008,19451 19737,34420 35181,44907 15447,10489 34038,15733 55775,15733 17544,0 31084,-3432 40617,-10297 9536,-6865 14301,-16019 14301,-27459 0,-8390 -2668,-15158 -8008,-20308 -5340,-5147 -13540,-9247 -24598,-12298l-45764 -13729c-25173,-6865 -43763,-17068 -55775,-30606 -12015,-13540 -18022,-29270 -18022,-47196 0,-17162 4578,-32320 13729,-45478 9154,-13158 22312,-23548 39474,-31177 17162,-7626 37374,-11440 60637,-11440 27841,0 52439,5722 73795,17162 21358,11440 36995,28031 46910,49768l-44049 29748c-4194,-9915 -10105,-18497 -17733,-25744 -7626,-7244 -16494,-12966 -26599,-17162 -10107,-4194 -21262,-6290 -33466,-6290 -18687,0 -32609,3144 -41760,9437 -9154,6293 -13729,14779 -13729,25458 0,9533 3622,16780 10869,21737 7247,4958 15826,8962 25741,12012l55490 16590c19833,5722 35277,14779 46338,27173 11058,12394 16590,26981 16590,43763 0,19448 -4768,36228 -14304,50340 -9533,14111 -22881,24980 -40042,32609 -17162,7626 -36992,11440 -59493,11440zm-1728186 840620l87524 -377558 119561 0c40042,0 71412,9726 94103,29177 22691,19448 34038,45192 34038,77227 0,25552 -6293,48339 -18879,68362 -12584,20020 -30317,35657 -53200,46907 -22883,11251 -49768,16876 -80659,16876l-115557 0 11443 -52057 110979 0c18687,0 34131,-3432 46336,-10297 12204,-6865 21358,-16112 27459,-27745 6101,-11633 9154,-24312 9154,-38042 0,-17544 -5818,-31655 -17448,-42332 -11633,-10679 -29462,-16019 -53489,-16019l-64069 0 -75512 325501 -61783 0zm467943 4576c-20976,0 -39663,-5051 -56061,-15158 -16398,-10107 -29174,-24312 -38328,-42617 -9154,-18308 -13729,-39856 -13729,-64643 0,-23263 3529,-45382 10583,-66358 7054,-20976 16972,-39567 29748,-55775 12776,-16208 28031,-28891 45764,-38042 17733,-9154 37088,-13729 58062,-13729 15637,0 29844,2668 42620,8008 12776,5340 23548,13158 32320,23455 8772,10297 14683,22883 17733,37756l14875 -63497 61208 0 -66358 286027 -54346 0 9726 -53200c-9533,17541 -22595,31556 -39185,42046 -16590,10487 -34802,15730 -54632,15730zm21166 -48625c12204,0 23741,-3240 34610,-9726 10869,-6483 20405,-15444 28602,-26885 8200,-11443 14683,-24694 19451,-39759 4768,-15062 7151,-30795 7151,-47193 0,-15255 -2765,-28509 -8294,-39759 -5532,-11251 -13158,-19926 -22883,-26027 -9726,-6104 -21262,-9154 -34610,-9154 -14111,0 -26791,3243 -38042,9726 -11251,6483 -20976,15351 -29174,26602 -8200,11248 -14587,24216 -19165,38899 -4576,14683 -6865,30031 -6865,46050 0,16398 2671,30320 8011,41760 5337,11440 13155,20212 23452,26316 10297,6101 22883,9151 37756,9151zm181344 164182l93817 -406160 54344 0 -14301 78370 -6865 4004c4578,-18305 12108,-33942 22598,-46907 10487,-12968 23455,-22883 38899,-29748 15447,-6865 31941,-10297 49482,-10297 19451,0 36899,4768 52343,14301 15447,9536 27651,23359 36613,41474 8962,18115 13444,39949 13444,65501 0,24027 -3622,46624 -10869,67790 -7247,21166 -17354,39757 -30320,55775 -12966,16016 -28127,28602 -45478,37756 -17351,9151 -36327,13729 -56921,13729 -17923,0 -34035,-3432 -48336,-10297 -14304,-6865 -25648,-17068 -34038,-30606 -8390,-13540 -13158,-29652 -14301,-48339l9723 -9154 -48625 212807 -61208 0zm188778 -163611c12586,0 24409,-3144 35467,-9437 11061,-6293 20787,-15161 29177,-26602 8390,-11440 14873,-24502 19448,-39185 4578,-14683 6865,-30416 6865,-47196 0,-16398 -2765,-30224 -8294,-41474 -5529,-11251 -13347,-19830 -23455,-25741 -10105,-5911 -21834,-8868 -35181,-8868 -13729,0 -26123,3243 -37184,9726 -11058,6483 -20688,15351 -28888,26602 -8200,11251 -14491,24502 -18877,39757 -4386,15255 -6579,31463 -6579,48625 0,22119 5719,39949 17162,53489 11440,13537 28220,20306 50340,20306zm338087 48625c-27077,0 -50342,-5623 -69791,-16873 -19451,-11251 -34516,-26602 -45192,-46053 -10679,-19448 -16019,-41378 -16019,-65787 0,-30509 6104,-58444 18305,-83806 12204,-25359 29938,-45668 53203,-60923 23263,-15255 51293,-22883 84092,-22883 24409,0 45382,4958 62926,14873 17544,9918 30891,23741 40045,41474 9151,17733 13729,38424 13729,62068 0,7629 -478,15447 -1432,23455 -954,8008 -2765,16019 -5433,24027l-230540 0 0 -46910 197360 0 -22309 16019c1525,-4576 2479,-9058 2858,-13444 382,-4386 574,-8486 574,-12298 0,-12586 -2385,-23455 -7151,-32609 -4768,-9154 -11729,-16208 -20880,-21166 -9154,-4958 -20023,-7436 -32609,-7436 -17162,0 -31749,3529 -43761,10583 -12015,7054 -21644,16590 -28891,28602 -7247,12015 -12394,25266 -15444,39759 -3050,14491 -4578,28792 -4578,42903 0,16019 3147,29842 9440,41474 6293,11633 15065,20690 26316,27173 11251,6483 24502,9726 39757,9726 17926,0 32513,-3814 43763,-11443 11251,-7626 20308,-17351 27173,-29174l49196 26316c-7629,12966 -17640,24120 -30034,33464 -12394,9344 -26505,16494 -42332,21452 -15826,4958 -33274,7436 -52343,7436zm182487 -5147l66358 -286027 51486 0 -9154 77227 -6293 -5722c6104,-16016 14397,-29745 24884,-41188 10489,-11440 22598,-20308 36327,-26599 13729,-6293 28031,-9440 42903,-9440 6104,0 11537,382 16304,1143 4768,764 8865,2097 12298,4004l-16587 54918c-3814,-1907 -8104,-3336 -12872,-4290 -4768,-954 -10773,-1429 -18019,-1429 -13729,0 -26698,3144 -38899,9437 -12204,6293 -22883,15922 -32037,28891 -9151,12966 -16208,29938 -21166,50911l-34324 148164 -61208 0zm-1209332 852060c-27459,0 -52725,-4097 -75798,-12298 -23073,-8200 -42999,-20119 -59779,-35753 -16780,-15637 -30127,-35088 -40042,-58350l49768 -33180c7247,20594 17351,37281 30320,50057 12966,12776 27934,22119 44907,28031 16969,5911 34799,8865 53486,8865 16780,0 30702,-2765 41760,-8294 11061,-5529 19355,-12680 24884,-21452 5532,-8772 8296,-18115 8296,-28031 0,-12586 -4100,-22405 -12300,-29462 -8200,-7054 -20116,-12872 -35753,-17448l-59493 -17162c-19069,-5719 -35373,-13251 -48911,-22595 -13540,-9344 -24027,-20405 -31463,-33180 -7439,-12776 -11157,-27173 -11157,-43189 0,-22119 5911,-41952 17733,-59496 11822,-17541 28319,-31271 49485,-41186 21166,-9918 46050,-14875 74652,-14875 37756,0 69315,7436 94677,22312 25359,14873 44525,37182 57490,66930l-50340 32035c-5722,-18305 -14015,-32320 -24887,-42046 -10869,-9726 -23073,-16494 -36610,-20308 -13540,-3812 -27745,-5719 -42617,-5719 -16783,0 -30798,2383 -42049,7151 -11248,4765 -19641,11344 -25170,19734 -5529,8390 -8294,17544 -8294,27459 0,11443 4576,21740 13729,30891 9151,9154 21548,16019 37182,20594l64072 19451c28220,8390 49293,20116 63212,35181 13922,15065 20880,33846 20880,56347 0,24409 -6387,45478 -19162,63212 -12776,17736 -29844,31463 -51200,41188 -21358,9726 -45192,14587 -71508,14587zm335226 0c-28223,0 -52153,-5719 -71794,-17159 -19641,-11443 -34802,-26984 -45478,-46624 -10679,-19641 -16019,-41282 -16019,-64929 0,-32417 6389,-61208 19165,-86381 12776,-25170 30509,-45000 53200,-59493 22691,-14491 49482,-21737 80374,-21737 28223,0 52153,5722 71794,17162 19641,11440 34610,26887 44907,46336 10297,19451 15444,41188 15444,65215 0,31655 -6197,60161 -18591,85523 -12394,25359 -30034,45382 -52915,60065 -22883,14683 -49578,22023 -80088,22023zm1143 -48050c12584,0 24312,-3053 35181,-9154 10869,-6101 20405,-14683 28602,-25741 8200,-11061 14493,-23933 18879,-38616 4386,-14680 6579,-30413 6579,-47193 0,-15255 -2575,-28795 -7725,-40617 -5147,-11822 -13155,-21262 -24027,-28316 -10869,-7054 -24502,-10583 -40900,-10583 -12586,0 -24409,3050 -35470,9154 -11058,6101 -20594,14587 -28602,25456 -8008,10869 -14301,23645 -18877,38328 -4578,14683 -6865,30606 -6865,47767 0,14491 2668,27838 8008,40042 5340,12204 13444,21834 24312,28891 10869,7054 24502,10583 40903,10583zm276873 47479c-28602,0 -48625,-8390 -60065,-25170 -11440,-16780 -13919,-38899 -7436,-66358l76084 -327790 61211 0 -76084 328362c-3814,14873 -2861,25648 2858,32320 5722,6675 15637,10011 29748,10011 5340,0 10011,-190 14015,-572 4004,-382 7533,-954 10583,-1715l-13158 44621c-6101,2286 -11918,3908 -17448,4861 -5529,954 -12298,1429 -20308,1429zm202507 0c-20591,0 -38613,-4576 -54058,-13729 -15447,-9151 -26505,-22309 -33180,-39471 -6672,-17162 -7151,-37946 -1429,-62354l40617 -175048 61208 0 -39471 169901c-5340,22881 -3147,40328 6579,52343 9726,12012 24312,18019 43761,18019 15255,0 28698,-3336 40331,-10011 11633,-6675 21452,-16590 29462,-29748 8008,-13155 14109,-29460 18305,-48911l35467 -151593 61211 0 -66358 286027 -54346 0 12012 -72080 5722 4578c-7629,24024 -21070,42046 -40331,54058 -19259,12015 -41092,18019 -65501,18019zm359825 0c-19833,0 -36706,-3718 -50628,-11155 -13919,-7436 -23741,-18401 -29460,-32892 -5722,-14493 -6293,-32037 -1718,-52632l58922 -256279 65787 -18308 -64643 275161c-3812,16780 -1525,28888 6865,36324 8393,7436 19261,11155 32609,11155 9154,0 17066,-1143 23741,-3432 6672,-2286 12680,-5340 18019,-9151l4576 45192c-9915,6101 -20116,10297 -30606,12584 -10487,2289 -21641,3432 -33464,3432zm-104686 -242552l10869 -48050 203079 0 -10869 48050 -203079 0zm328359 -96104c-11440,0 -20594,-3053 -27459,-9154 -6865,-6101 -9915,-14493 -9151,-25170 382,-13347 4576,-23645 12584,-30891 8011,-7247 18115,-10869 30320,-10869 11822,0 21072,2954 27745,8865 6675,5911 9822,14015 9440,24312 -764,14111 -5150,24791 -13158,32037 -8008,7244 -18115,10869 -30320,10869zm14301 48053l-66358 286027 -61208 0 66358 -286027 61208 0zm173908 291174c-28223,0 -52153,-5719 -71794,-17159 -19641,-11443 -34802,-26984 -45478,-46624 -10679,-19641 -16019,-41282 -16019,-64929 0,-32417 6389,-61208 19165,-86381 12776,-25170 30509,-45000 53200,-59493 22691,-14491 49482,-21737 80374,-21737 28223,0 52153,5722 71794,17162 19641,11440 34610,26887 44907,46336 10297,19451 15444,41188 15444,65215 0,31655 -6197,60161 -18591,85523 -12394,25359 -30034,45382 -52915,60065 -22883,14683 -49578,22023 -80088,22023zm1143 -48050c12584,0 24312,-3053 35181,-9154 10869,-6101 20405,-14683 28602,-25741 8200,-11061 14493,-23933 18879,-38616 4386,-14680 6579,-30413 6579,-47193 0,-15255 -2575,-28795 -7725,-40617 -5147,-11822 -13155,-21262 -24027,-28316 -10869,-7054 -24502,-10583 -40900,-10583 -12586,0 -24409,3050 -35470,9154 -11058,6101 -20594,14587 -28602,25456 -8008,10869 -14301,23645 -18877,38328 -4578,14683 -6865,30606 -6865,47767 0,14491 2668,27838 8008,40042 5340,12204 13444,21834 24312,28891 10869,7054 24502,10583 40903,10583zm191067 42903l66358 -286027 53772 0 -12012 72077 -5722 -4004c8008,-24409 22119,-42810 42332,-55204 20215,-12394 42524,-18591 66933,-18591 21355,0 39471,4672 54344,14015 14875,9344 25362,22691 31463,40042 6104,17354 6293,38424 574,63214l-40617 174477 -61211 0 40045 -171616c4958,-21740 2861,-38806 -6293,-51200 -9154,-12397 -23645,-18594 -43478,-18594 -15255,0 -28888,3432 -40900,10297 -12015,6865 -22026,16876 -30034,30034 -8008,13158 -14493,29652 -19451,49482l-34895 151596 -61208 0zm474808 6293c-21740,0 -41667,-3243 -59779,-9726 -18115,-6483 -33848,-15826 -47196,-28031 -13347,-12204 -23837,-26505 -31463,-42903l46336 -28033c8008,19451 19737,34420 35181,44907 15447,10489 34038,15733 55775,15733 17544,0 31084,-3432 40617,-10297 9536,-6865 14301,-16019 14301,-27459 0,-8390 -2668,-15158 -8008,-20308 -5340,-5147 -13540,-9247 -24598,-12298l-45764 -13729c-25173,-6865 -43763,-17068 -55775,-30606 -12015,-13540 -18022,-29270 -18022,-47196 0,-17162 4578,-32320 13729,-45478 9154,-13158 22312,-23548 39474,-31177 17162,-7626 37374,-11440 60637,-11440 27841,0 52439,5722 73795,17162 21358,11440 36995,28031 46910,49768l-44049 29748c-4194,-9915 -10105,-18497 -17733,-25744 -7626,-7244 -16494,-12966 -26599,-17162 -10107,-4194 -21262,-6290 -33466,-6290 -18687,0 -32609,3144 -41760,9437 -9154,6293 -13729,14779 -13729,25458 0,9533 3622,16780 10869,21737 7247,4958 15826,8962 25741,12012l55490 16590c19833,5722 35277,14779 46338,27173 11058,12394 16590,26981 16590,43763 0,19448 -4768,36228 -14304,50340 -9533,14111 -22881,24980 -40042,32609 -17162,7626 -36992,11440 -59493,11440z"/>
   <path id="s" class="fil0" d="M1466438 757707c35755,-179 344812,-5414 357599,1396l242 645401 -275571 709c-6980,-90783 -1577,-186711 -1679,-277846l27 -155605c118,-37088 -1050,-75265 5320,-111886l-19676 31004c-121713,180261 -279833,336782 -464505,452229 -36973,23111 -76411,50870 -119702,59304l-885510 2880c10151,-8390 37234,-10382 50142,-12704l164196 -29185c188794,-38435 372526,-90236 549547,-167312 158139,-68851 310458,-157218 445612,-264537l113686 -98909c23686,-22081 52140,-62497 80272,-74938z"/>
   <path id="ci" class="fil0" d="M1472437 1617103l351616 135 102 502761c16,27099 6101,128363 -3584,142552l-12850 871 -962897 135 9025 -82597c-26758,24235 -85301,75155 -120226,81033l-1047 162 -603259 646c15697,-9638 39814,-12061 57707,-14884l74553 -13642c220746,-44027 431357,-105444 635417,-202246 151577,-71918 296871,-162844 424207,-272303l83817 -76952c19481,-19478 42917,-52436 66622,-65240l797 -431z"/>
   <path id="c" class="fil1" d="M732576 2262155l1047 -162c34926,-5878 93468,-56798 120226,-81033 -2078,48509 -5353,-39226 -3496,297069 -511,37374 7920,326160 -1495,337054 -40606,47036 -91905,80129 -145481,110831 -79123,71706 -539610,205450 -699747,215445 -4702,-54212 -860,-111389 -1239,-165897l-324 -388745 -638 -89016c-184,-10456 -2806,-26613 1083,-35962l167194 -10473c173322,-20242 338705,-62926 493687,-144910 22526,-11935 52483,-22757 68329,-43096l855 -1105z"/>
   <path id="t" class="fil0" d="M850354 2478028l973952 -104 -16 502973 -173 108203c-36,9879 2333,25681 -3545,33900l-14166 833 -1674345 -2377c196489,-49916 393313,-93559 571318,-195543 53577,-30702 104876,-63794 145481,-110831 9415,-10893 984,-299680 1495,-337054z"/>
   <path id="d" class="fil2" d="M62984 1405293c-6672,1209 -16417,-1775 -23504,-1954 -12982,-324 -26547,1495 -39479,2734l1440 -666025c161522,7098 320505,-9959 479092,-38155 306737,-54550 606153,-202469 831584,-417642 89967,-85870 166730,-182484 237749,-284252l-2528 428703 1830 127764c503,25664 3004,53074 -1311,78458 -4919,29014 -36583,64495 -56061,86213 -8607,9605 -23007,21465 -25090,34560l-267 2009c-28132,12441 -56586,52857 -80272,74938l-113686 98909c-135154,107319 -287473,195686 -445612,264537 -177021,77076 -360753,128877 -549547,167312l-164196 29185c-12908,2322 -39990,4315 -50142,12704z"/>
   <path id="u" class="fil3" d="M948494 1402413c43291,-8434 82729,-36192 119702,-59304 184672,-115447 342792,-271968 464505,-452229l19676 -31004c-6370,36621 -5202,74798 -5320,111886l-27 155605c102,91135 -5301,187063 1679,277846 -44,34398 7653,79956 -5375,111880 -7527,18431 -22397,35310 -34571,50936 -11899,15312 -27701,31721 -36324,49073l-797 431c-23705,12803 -47141,45761 -66622,65240l-83817 76952c-127336,109459 -272630,200386 -424207,272303 -204060,96802 -414671,158219 -635417,202246l-74553 13642c-17893,2822 -42010,5246 -57707,14884 -42345,-484 -86411,6648 -128473,11682l-135 -665929c186673,4754 384329,-10663 565750,-56061 120309,-30111 233365,-73819 346463,-124049 12564,-5581 30526,-13020 35571,-26030z"/>
  </g>
 </g>
</svg>
